<svg height="20" viewBox="0 0 248 195" fill="none" xmlns="http://www.w3.org/2000/svg">
    <path fill-rule="evenodd" clip-rule="evenodd" d="M141.562 92.907L163.04 32.3212H164.689L216.655 179.684C218.672 185.345 221.605 189.179 225.454 191.188C229.486 193.197 233.427 194.201 237.277 194.201C240.943 194.201 243.601 193.379 245.25 191.736C247.083 189.91 248 187.719 248 185.162C248 184.249 247.817 182.879 247.45 181.053L184.486 7.39553C183.753 5.02165 181.737 3.1956 178.437 1.91736C175.321 0.63912 171.747 0 167.714 0C164.048 0 160.748 0.63912 157.816 1.91736C155.066 3.013 153.325 4.56515 152.592 6.5738L131.115 64.2043L141.562 92.907Z" fill="white"/>
    <path fill-rule="evenodd" clip-rule="evenodd" d="M16.4971 191.462C19.4299 189.453 21.9962 185.527 24.1958 179.684L34.5416 150.5H77H107.351L99.3975 127.915H42.5481L76.4366 32.3212H78.0864L111.797 127.915H111.77L119.723 150.5H119.761L130.052 179.684C132.069 185.345 135.001 189.179 138.851 191.188C142.883 193.197 146.824 194.201 150.674 194.201C154.34 194.201 156.998 193.379 158.647 191.736C160.48 189.91 161.397 187.719 161.397 185.162C161.397 184.249 161.214 182.879 160.847 181.053L129.365 94.2245L97.8829 7.39553C97.1497 5.02165 95.1334 3.1956 91.834 1.91736C88.7178 0.63912 85.1435 0 81.1108 0C77.4448 0 74.1454 0.63912 71.2126 1.91736C68.463 3.013 66.7217 4.56515 65.9885 6.5738L1.37476 179.958C0.458255 182.332 0 184.614 0 186.806C0 188.997 0.549904 190.823 1.64971 192.284C2.93282 193.562 4.85748 194.201 7.4237 194.201C10.7231 194.201 13.7476 193.288 16.4971 191.462Z" fill="white"/>
</svg>

