<svg width="68" height="28" viewBox="0 0 68 28" fill="none" xmlns="http://www.w3.org/2000/svg">
	<g clip-path="url(#clip0)">
		<path d="M16.8 18.5684C16.8 18.3326 16.7312 18.2639 16.4955 18.2639C14.3242 18.2737 12.1628 18.2737 9.99159 18.2639C9.77545 18.2639 9.68703 18.3326 9.69686 18.5586C9.70668 19.3446 9.69686 20.1305 9.69686 20.9067C9.69686 21.0147 9.64773 21.1621 9.73615 21.2112C9.8344 21.2702 9.913 21.1228 9.99159 21.0639C11.1509 20.1895 12.7523 20.3565 13.6955 21.447C14.6386 22.5375 14.5797 24.1586 13.5579 25.1705C12.5067 26.2021 11.2393 26.7425 9.76563 26.7621C6.33686 26.8112 3.70387 23.6575 4.36212 20.2975C4.84352 17.8414 6.82808 16.1123 9.39229 15.8863C9.71651 15.8568 9.72633 15.8568 9.72633 15.5326C9.72633 14.4323 9.72633 13.3319 9.72633 12.2316C9.72633 11.1607 9.72633 10.0898 9.72633 9.02877C9.72633 8.56702 9.72633 8.55719 9.25475 8.58666C6.64142 8.74386 4.42107 9.75579 2.62317 11.6618C-1.09051 15.6014 -0.82525 21.9186 3.23229 25.5144C5.46247 27.4891 8.09545 28.2849 11.0428 27.9018C13.1944 27.6267 15.0316 26.6737 16.5839 25.1509C16.7411 25.0035 16.8 24.8463 16.8 24.6203C16.8 22.5965 16.8 20.5825 16.8 18.5684Z" fill="#FEFEFE"/>
		<path d="M25.6028 18.5586C25.6028 18.3425 25.5439 18.254 25.3179 18.254C24.6597 18.2639 23.9916 18.2639 23.3333 18.254C23.127 18.254 23.0582 18.3326 23.019 18.5193C22.734 20.1011 22.4393 21.6828 22.1446 23.2547C22.0463 23.7951 21.9382 24.3354 21.84 24.8856C21.8204 24.8856 21.8007 24.8856 21.7811 24.8856C21.7614 24.807 21.7418 24.7186 21.7319 24.64C21.3586 22.6063 20.9754 20.5726 20.6119 18.5389C20.5726 18.3228 20.494 18.2442 20.2681 18.2442C19.6491 18.254 19.04 18.2442 18.4211 18.254C18.0281 18.254 18.0281 18.254 18.0281 18.647C18.0281 20.9558 18.0281 23.2744 18.0281 25.5832C18.0281 26.2905 18.0281 26.9979 18.0281 27.7053C18.0281 27.9018 18.087 27.9803 18.2933 27.9803C18.7354 27.9705 19.1874 27.9803 19.6295 27.9803C19.9733 27.9803 19.9733 27.9803 19.9733 27.6365C19.9733 25.8386 19.9733 24.0407 19.9733 22.2428C19.9733 22.1544 19.9537 22.066 20.0323 21.9284C20.1011 22.3214 20.16 22.6554 20.2091 22.9895C20.4744 24.5712 20.7298 26.1628 20.9853 27.7446C21.0147 27.9214 21.0835 28 21.2702 27.9902C21.5846 27.9803 21.899 27.9902 22.2133 27.9902C22.5965 27.9902 22.5965 27.9902 22.6554 27.6168C22.9502 25.8091 23.2449 23.9916 23.5495 22.1839C23.5593 22.1151 23.579 22.0561 23.5986 21.9874C23.6477 22.174 23.6477 22.3509 23.6477 22.5277C23.6477 24.247 23.6477 25.9663 23.6477 27.6954C23.6477 28 23.6575 28 23.9621 28C24.4042 28 24.8561 27.9902 25.2982 28C25.5242 28.0098 25.6028 27.9312 25.6028 27.6954C25.6028 24.6498 25.6028 21.6042 25.6028 18.5586Z" fill="#FEFEFE"/>
		<path d="M47.3642 18.2639C46.9123 18.2737 46.4604 18.2737 46.0084 18.2639C45.7726 18.254 45.7039 18.3523 45.7039 18.5782C45.7137 19.4232 45.7039 20.2681 45.7039 21.113C45.7039 21.447 45.7039 21.7909 45.7039 22.1249C45.7039 22.2133 45.7137 22.3116 45.586 22.3509C45.2716 22.4491 45.1046 22.3411 45.1046 22.007C45.1046 20.8575 45.1046 19.7179 45.1046 18.5684C45.1046 18.3425 45.0358 18.254 44.8 18.2639C44.3579 18.2835 43.906 18.2639 43.4639 18.2639C43.1397 18.2639 43.1396 18.2639 43.1396 18.5782C43.1396 20.0912 43.1396 21.6042 43.1396 23.1172C43.1396 24.6498 43.1396 26.1726 43.1396 27.7053C43.1396 27.9116 43.1986 27.9902 43.4147 27.9902C43.8667 27.9804 44.3186 27.9902 44.7705 27.9902C45.0947 27.9902 45.1046 27.9804 45.1046 27.6561C45.1046 26.6639 45.1046 25.6716 45.1046 24.6793C45.1046 24.3354 45.1046 23.9916 45.1046 23.6379C45.1046 23.5593 45.0849 23.4709 45.193 23.4316C45.5074 23.3235 45.694 23.4512 45.7039 23.7853C45.7039 23.8442 45.7039 23.913 45.7039 23.9719C45.7039 25.2098 45.7039 26.4477 45.7039 27.6856C45.7039 27.9804 45.7137 27.9902 46.0182 27.9902C46.4604 27.9902 46.8926 27.9902 47.3347 27.9902C47.6491 27.9902 47.6491 27.9902 47.6491 27.666C47.6491 26.2119 47.6491 24.7579 47.6491 23.3137C47.6491 21.7319 47.6491 20.1502 47.6491 18.5684C47.6589 18.3425 47.5803 18.254 47.3642 18.2639Z" fill="#FEFEFE"/>
		<path d="M42.0786 20.0814C42.0786 19.8161 42.0688 19.5607 42.0098 19.3053C41.8821 18.706 41.5383 18.3719 40.9291 18.3032C40.2316 18.2246 39.5341 18.2442 38.8365 18.2933C38.0604 18.3425 37.687 18.7551 37.5986 19.5312C37.5397 20.0716 37.579 20.6218 37.5691 21.1719C37.5691 21.3389 37.6477 21.4077 37.8049 21.3979C38.2863 21.3979 38.7579 21.3881 39.2393 21.3979C39.4456 21.3979 39.5242 21.3291 39.5242 21.113C39.5144 20.6611 39.5144 20.2091 39.5242 19.7572C39.5242 19.5018 39.6421 19.374 39.8288 19.374C40.0155 19.374 40.1235 19.5018 40.1235 19.767C40.1235 20.5923 40.1235 21.4077 40.1235 22.233C40.1235 22.4 40.0646 22.4688 39.8877 22.4688C39.5242 22.4589 39.1607 22.4786 38.807 22.4688C38.6105 22.4589 38.5418 22.5474 38.5516 22.7242C38.5614 22.9207 38.5614 23.1074 38.5516 23.3039C38.5418 23.4807 38.6204 23.5495 38.7972 23.5495C39.1411 23.5396 39.4849 23.5593 39.8386 23.5396C40.0646 23.5298 40.1334 23.6084 40.1235 23.8344C40.1137 24.6989 40.1235 25.5537 40.1235 26.4182C40.1235 26.4968 40.1235 26.5754 40.1137 26.6442C40.0941 26.8112 40.0056 26.9193 39.8288 26.9193C39.6618 26.9193 39.5537 26.8211 39.5341 26.654C39.5242 26.546 39.5144 26.4379 39.5144 26.3298C39.5144 25.8288 39.5144 25.3277 39.5144 24.8267C39.5144 24.6891 39.4751 24.5909 39.3081 24.5909C38.7972 24.6007 38.2765 24.5909 37.7656 24.5909C37.6477 24.5909 37.5691 24.6302 37.5691 24.7579C37.579 25.4751 37.5102 26.1923 37.6183 26.8996C37.7263 27.5775 38.139 27.9607 38.8267 27.9902C39.4849 28.0197 40.153 28.0197 40.8112 27.9902C41.5088 27.9607 41.9214 27.5579 42.0393 26.8702C42.0786 26.6442 42.0884 26.4084 42.0884 26.1825C42.0884 25.1804 42.0884 24.1684 42.0884 23.1565C42.0786 22.1249 42.0786 21.1032 42.0786 20.0814Z" fill="#FEFEFE"/>
		<path d="M36.7046 19.3642C36.5965 18.7158 36.233 18.3719 35.5846 18.2933C35.0049 18.2246 34.4154 18.2737 33.8358 18.2639C32.7354 18.254 32.2639 18.7354 32.2442 19.8358C32.2442 19.8849 32.2442 19.9439 32.2442 19.993C32.2442 21.0344 32.2442 22.0856 32.2442 23.127C32.2442 24.1095 32.2442 25.0919 32.2442 26.0744C32.2442 26.32 32.2344 26.5656 32.2835 26.8112C32.4112 27.5775 32.8435 27.9607 33.6098 27.9803C34.1993 27.9902 34.7888 27.9902 35.3881 27.9803C36.1839 27.9705 36.6456 27.5382 36.7242 26.7425C36.793 26.094 36.7439 25.4358 36.7635 24.7874C36.7635 24.6302 36.7046 24.5712 36.5474 24.5712C36.0561 24.5811 35.5649 24.5811 35.0737 24.5712C34.8772 24.5712 34.8182 24.6498 34.8182 24.8267C34.8182 25.2295 34.8182 25.6421 34.8084 26.0449C34.8084 26.2414 34.8084 26.4281 34.7986 26.6246C34.7789 26.7916 34.6807 26.8898 34.5039 26.8898C34.327 26.8898 34.2386 26.7916 34.2091 26.6246C34.1993 26.5558 34.1993 26.487 34.1993 26.4182C34.1993 24.2274 34.1993 22.0365 34.1993 19.8456C34.1993 19.7572 34.1993 19.6589 34.2288 19.5705C34.2681 19.4232 34.3663 19.3544 34.5137 19.3544C34.6512 19.3544 34.7495 19.433 34.7789 19.5607C34.7986 19.6491 34.8084 19.7474 34.8084 19.8358C34.8084 20.2681 34.8084 20.7003 34.8084 21.1228C34.8084 21.2603 34.8281 21.3684 35.0049 21.3684C35.5256 21.3684 36.0463 21.3684 36.5768 21.3684C36.6947 21.3684 36.7733 21.3095 36.7635 21.1916C36.7537 20.5923 36.8126 19.9733 36.7046 19.3642Z" fill="#FEFEFE"/>
		<path d="M52.4632 26.9095C51.9523 26.9193 51.4316 26.9095 50.9207 26.9095C50.734 26.9095 50.6653 26.8407 50.6653 26.654C50.6751 25.6618 50.6751 24.6695 50.6653 23.6772C50.6653 23.4709 50.7439 23.4119 50.9404 23.4218C51.4316 23.4316 51.9228 23.4218 52.414 23.4316C52.6105 23.4316 52.6793 23.3628 52.6695 23.1761C52.6596 22.9796 52.6596 22.793 52.6695 22.5965C52.6793 22.4196 52.6105 22.3509 52.4239 22.3607C51.9228 22.3705 51.4218 22.3607 50.9305 22.3607C50.7439 22.3607 50.6653 22.2919 50.6653 22.1053C50.6751 21.28 50.6751 20.4646 50.6653 19.6393C50.6653 19.433 50.734 19.3544 50.9404 19.3544C51.4119 19.3642 51.8737 19.3544 52.3453 19.3544C52.6498 19.3544 52.6596 19.3446 52.6695 19.0204C52.6695 18.8632 52.6596 18.7158 52.6695 18.5586C52.6891 18.3326 52.5909 18.254 52.3649 18.254C51.2547 18.2639 50.1347 18.2639 49.0246 18.254C48.7888 18.254 48.7298 18.3326 48.7298 18.5586C48.7397 20.0814 48.7298 21.6042 48.7298 23.127C48.7298 24.6302 48.7298 26.1432 48.7298 27.6463C48.7298 27.9804 48.7298 27.9804 49.0737 27.9804C50.0561 27.9804 51.0386 27.9804 52.0211 27.9804C52.7972 27.9804 52.7874 27.9804 52.7677 27.1944C52.7579 26.9881 52.6793 26.8996 52.4632 26.9095Z" fill="#FEFEFE"/>
		<path d="M62.779 18.5684C62.779 18.2835 62.7593 18.2639 62.4744 18.2639C61.4428 18.2639 60.4112 18.2639 59.3895 18.2639C59.0653 18.2639 59.0555 18.2737 59.0555 18.6077C59.0555 20.1109 59.0555 21.6239 59.0555 23.127C59.0555 24.6498 59.0555 26.1726 59.0555 27.6954C59.0555 27.9214 59.1242 28.0098 59.36 28C59.753 27.9803 60.146 28 60.539 27.9902C61.0695 27.9902 61.0302 28.0589 61.0302 27.4989C61.0302 24.8954 61.0302 22.2919 61.0302 19.6884C61.0302 19.374 61.04 19.3642 61.3544 19.3642C61.7474 19.3642 62.1404 19.3544 62.5333 19.3642C62.72 19.3642 62.7986 19.2954 62.7888 19.1088C62.7691 18.9221 62.779 18.7453 62.779 18.5684Z" fill="#FEFEFE"/>
		<path d="M12.9488 17.2814C13.273 17.7628 13.2337 17.7039 13.5088 17.2716C15.1495 14.7074 15.9453 11.8877 16.0042 9.08772C16.0042 8.00702 15.906 7.16211 15.7782 6.31719C15.4344 4.06737 14.5797 2.02386 13.3418 0.127719C13.2239 -0.0491227 13.1649 -0.00982446 13.0765 0.137544C12.9586 0.34386 12.8309 0.540351 12.7032 0.746667C10.6105 4.28351 9.97193 8.08561 10.807 12.1235C11.2 13.9705 11.8975 15.7095 12.9488 17.2814ZM13.3614 16.7214C13.3319 16.7902 13.3123 16.9179 13.214 16.9081C13.1256 16.8982 13.106 16.7804 13.0765 16.7116C12.6442 15.7782 12.4575 14.786 12.4379 13.6954C12.4477 12.7425 12.6737 11.7796 13.106 10.866C13.1354 10.807 13.1453 10.7088 13.2239 10.7186C13.3025 10.7186 13.3123 10.8168 13.3418 10.8758C14.1768 12.8112 14.2358 14.7663 13.3614 16.7214ZM12.0253 3.97895C12.3298 3.17333 12.654 2.37754 13.0568 1.61123C13.0961 1.54246 13.1158 1.42456 13.2042 1.42456C13.3025 1.41474 13.3221 1.53263 13.3614 1.6014C14.8547 4.29333 15.5032 7.17193 15.2968 10.247C15.2674 10.6891 15.2182 11.1214 15.1495 11.5537C15.1397 11.6323 15.1397 11.7109 15.0611 11.7993C15.0611 11.2589 15.0512 10.7481 15.0119 10.2372C14.8547 8.21333 14.2751 6.30737 13.3909 4.48982C13.3712 4.45053 13.3418 4.41123 13.3221 4.37193C13.2435 4.23439 13.1747 4.26386 13.1158 4.38175C13.0077 4.59789 12.8898 4.82386 12.7916 5.04C11.9172 7.03439 11.4161 9.10737 11.3867 11.2884C11.3867 11.4358 11.367 11.5733 11.367 11.7207C10.9249 9.0779 11.0919 6.49404 12.0253 3.97895Z" fill="#FEFEFE"/>
		<path d="M67.6814 19.1775C67.5439 18.6863 67.2197 18.3719 66.7088 18.313C65.913 18.2246 65.1074 18.2246 64.3214 18.313C63.8498 18.3719 63.5355 18.6667 63.3783 19.1284C63.2997 19.374 63.2702 19.6295 63.2702 19.8751C63.2702 20.9558 63.2702 22.0267 63.2702 23.1074C63.28 24.2863 63.2211 25.4751 63.2898 26.654C63.339 27.5677 63.8204 27.9902 64.7439 27.9902C65.2548 27.9902 65.7755 27.9902 66.2863 27.9902C67.2197 27.9902 67.6912 27.5481 67.76 26.6147C67.7698 26.5263 67.7698 26.4477 67.7698 26.3593C67.7698 24.1979 67.7698 22.0365 67.7698 19.8849C67.7698 19.6491 67.7404 19.4133 67.6814 19.1775ZM65.8246 26.487C65.8246 26.5558 65.8148 26.6246 65.7951 26.6933C65.746 26.8309 65.6477 26.9095 65.5004 26.8996C65.3432 26.8898 65.2646 26.8014 65.2351 26.654C65.2253 26.5754 65.2253 26.487 65.2253 26.3986C65.2253 25.3081 65.2253 24.2175 65.2253 23.127C65.2253 22.0365 65.2253 20.946 65.2253 19.8554C65.2253 19.767 65.2253 19.6688 65.2449 19.5804C65.2744 19.4526 65.353 19.3839 65.4905 19.3642C65.6183 19.3446 65.7165 19.4035 65.7754 19.5116C65.8246 19.6 65.8246 19.6884 65.8246 19.7768C65.8246 22.0168 65.8246 24.2568 65.8246 26.487Z" fill="#FEFEFE"/>
		<path d="M31.1341 19.4035C31.0456 18.7846 30.6821 18.3818 30.1123 18.313C29.3263 18.2246 28.5305 18.2246 27.7446 18.313C27.2337 18.3621 26.9095 18.6765 26.772 19.1677C26.6934 19.4526 26.6737 19.7375 26.6737 20.0323C26.6737 21.0737 26.6737 22.1053 26.6737 23.1467C26.6737 24.1488 26.6737 25.1607 26.6737 26.1628C26.6737 26.3789 26.6835 26.5951 26.713 26.8112C26.8211 27.5481 27.2435 27.9607 27.9902 27.9804C28.619 28 29.2477 28 29.8765 27.9804C30.5839 27.9607 31.026 27.5579 31.1341 26.8702C31.1635 26.6835 31.1832 26.487 31.1832 26.3004C31.1832 24.1979 31.1832 22.1053 31.1832 20.0028C31.1832 19.8063 31.1635 19.6 31.1341 19.4035ZM29.2281 26.4674C29.2281 26.546 29.2183 26.6344 29.1888 26.713C29.1397 26.8407 29.0414 26.8997 28.8941 26.8898C28.7565 26.88 28.6583 26.8014 28.6386 26.6639C28.619 26.5558 28.619 26.4379 28.619 26.32C28.619 25.2491 28.619 24.1881 28.619 23.1172C28.619 22.0267 28.619 20.9361 28.619 19.8456C28.619 19.4919 28.6976 19.3642 28.9039 19.3544C29.12 19.3446 29.2281 19.4919 29.2281 19.8456C29.2379 22.0561 29.2379 24.2667 29.2281 26.4674Z" fill="#FEFEFE"/>
		<path d="M56.5403 18.2639C55.6561 18.2639 54.7719 18.2639 53.8877 18.2639C53.5733 18.2639 53.5635 18.2737 53.5635 18.5881C53.5635 20.0912 53.5635 21.6042 53.5635 23.1074C53.5635 24.64 53.5635 26.1628 53.5635 27.6954C53.5635 27.9116 53.6323 28 53.8484 27.9902C54.2905 27.9803 54.7228 27.9902 55.1649 27.9902C55.5088 27.9902 55.5088 27.9902 55.5088 27.6463C55.5088 26.7425 55.5088 25.8484 55.5088 24.9446C55.5088 24.7579 55.5775 24.6891 55.7642 24.6891C56.1375 24.6989 56.5207 24.7088 56.894 24.6695C57.4639 24.6105 57.847 24.2961 57.9846 23.7361C58.0239 23.5691 58.0632 23.3923 58.0632 23.2154C58.073 22.0561 58.0926 20.8968 58.0632 19.7375C58.0435 18.7158 57.5523 18.2639 56.5403 18.2639ZM56.1179 23.127C56.1179 23.4119 56 23.5691 55.8035 23.5986C55.5874 23.6379 55.5186 23.5888 55.5186 23.3726C55.5186 22.793 55.5186 22.2035 55.5186 21.6239C55.5186 21.5747 55.5186 21.5158 55.5186 21.4667C55.5186 20.8575 55.5186 20.2582 55.5186 19.6491C55.5186 19.5509 55.4793 19.4133 55.6267 19.374C55.7839 19.3347 55.9312 19.3642 56.0393 19.5116C56.1081 19.6196 56.1277 19.7375 56.1277 19.8653C56.1277 20.946 56.1277 22.0365 56.1179 23.127Z" fill="#FEFEFE"/>
	</g>
	<defs>
		<clipPath id="clip0">
			<rect width="67.7698" height="28" fill="white"/>
		</clipPath>
	</defs>
</svg>
